<svg xmlns="http://www.w3.org/2000/svg" viewBox="0 0 68 68"><defs><style>.cls-1{fill:#261300;stroke:#2ac2d5;stroke-miterlimit:10;stroke-width:4px;}.cls-2{fill:#fff;}</style></defs><title>icon3</title><g id="图层_2" data-name="图层 2"><g id="图层_1-2" data-name="图层 1"><rect class="cls-1" x="2" y="2" width="64" height="64"/><path class="cls-2" d="M16.77,17.65,18.3,20.3,19.84,23h6.49l-.18.3L24.8,25.62l-.18.3-1.36,2.36-.18.3-1.35,2.35-.18.31-1.36,2.35L20,33.9l-1.36,2.35-1.54,2.66-1.53,2.65-1.53,2.66-1.54,2.66L11,49.54h6.13l3.07-5.32,1.54-2.66,1.35-2.35.18-.3,1.36-2.36.17-.3,1.36-2.35.18-.31H47.81l1.36-2.35.17-.31,1.36-2.35.18-.3,1.36-2.36.17-.3,1.36-2.36L54,23l1.36-2.35.18-.31L56.84,18l.17-.3Zm30.87,5.61-1.36,2.36-.18.3-1.36,2.36H29.4l1.35-2.36.18-.3,1.36-2.36.18-.3H47.81Z"/><polygon class="cls-2" points="54.35 38.17 54.17 38.47 52.81 40.83 52.64 41.13 51.28 43.48 45.14 43.48 44.97 43.79 43.61 46.14 43.43 46.45 42.07 48.8 41.9 49.1 40.54 51.46 34.4 51.46 35.76 49.11 35.94 48.8 37.3 46.45 37.47 46.14 38.83 43.79 39.01 43.48 29.45 43.48 28.09 41.14 28.09 41.13 27.91 40.83 26.55 38.47 26.38 38.17 54.35 38.17"/></g></g></svg>